<mxfile host="app.diagrams.net" agent="Mozilla/5.0 (Macintosh; Intel Mac OS X 10_15_7) AppleWebKit/537.36 (KHTML, like Gecko) Chrome/134.0.0.0 Safari/537.36" version="26.2.6">
  <diagram name="Page-1" id="QH8K8ghoKw8ID8OzT609">
    <mxGraphModel dx="813" dy="728" grid="1" gridSize="10" guides="1" tooltips="1" connect="1" arrows="1" fold="1" page="1" pageScale="1" pageWidth="850" pageHeight="1100" math="0" shadow="0">
      <root>
        <mxCell id="0" />
        <mxCell id="1" parent="0" />
        <mxCell id="R-tR150lUjor8DAGONKd-1" value="" style="rounded=0;whiteSpace=wrap;html=1;" vertex="1" parent="1">
          <mxGeometry x="40" y="40" width="760" height="90" as="geometry" />
        </mxCell>
        <mxCell id="R-tR150lUjor8DAGONKd-2" value="Lone Tree Rafting" style="rounded=0;whiteSpace=wrap;html=1;verticalAlign=top;fontSize=23;" vertex="1" parent="1">
          <mxGeometry x="40" y="140" width="760" height="220" as="geometry" />
        </mxCell>
        <mxCell id="R-tR150lUjor8DAGONKd-3" value="Our Guides" style="rounded=0;whiteSpace=wrap;html=1;fontSize=19;verticalAlign=top;" vertex="1" parent="1">
          <mxGeometry x="40" y="370" width="760" height="210" as="geometry" />
        </mxCell>
        <mxCell id="R-tR150lUjor8DAGONKd-4" value="Form&lt;div&gt;Name&lt;/div&gt;&lt;div&gt;Email&lt;/div&gt;&lt;div&gt;Reason for contact&lt;/div&gt;&lt;div&gt;Comment&lt;/div&gt;&lt;div style=&quot;&quot;&gt;&lt;br&gt;&lt;/div&gt;" style="rounded=0;whiteSpace=wrap;html=1;align=left;spacing=20;spacingTop=2;spacingLeft=5;spacingBottom=5;spacingRight=8;" vertex="1" parent="1">
          <mxGeometry x="40" y="670" width="400" height="340" as="geometry" />
        </mxCell>
        <mxCell id="R-tR150lUjor8DAGONKd-5" value="Map" style="rounded=0;whiteSpace=wrap;html=1;spacing=12;" vertex="1" parent="1">
          <mxGeometry x="450" y="670" width="350" height="340" as="geometry" />
        </mxCell>
        <mxCell id="R-tR150lUjor8DAGONKd-6" value="Footer Content and Social Media Links" style="rounded=0;whiteSpace=wrap;html=1;" vertex="1" parent="1">
          <mxGeometry x="40" y="1020" width="760" height="60" as="geometry" />
        </mxCell>
        <mxCell id="R-tR150lUjor8DAGONKd-7" value="Contact Us&lt;div&gt;Address&lt;/div&gt;&lt;div&gt;Phone&lt;/div&gt;" style="rounded=0;whiteSpace=wrap;html=1;" vertex="1" parent="1">
          <mxGeometry x="40" y="590" width="760" height="70" as="geometry" />
        </mxCell>
        <mxCell id="R-tR150lUjor8DAGONKd-8" value="Logo" style="whiteSpace=wrap;html=1;aspect=fixed;" vertex="1" parent="1">
          <mxGeometry x="100" y="45" width="80" height="80" as="geometry" />
        </mxCell>
        <mxCell id="R-tR150lUjor8DAGONKd-9" value="Home" style="rounded=0;whiteSpace=wrap;html=1;" vertex="1" parent="1">
          <mxGeometry x="425" y="70" width="80" height="30" as="geometry" />
        </mxCell>
        <mxCell id="R-tR150lUjor8DAGONKd-10" value="About Us" style="rounded=0;whiteSpace=wrap;html=1;" vertex="1" parent="1">
          <mxGeometry x="505" y="70" width="80" height="30" as="geometry" />
        </mxCell>
        <mxCell id="R-tR150lUjor8DAGONKd-11" value="Trips" style="rounded=0;whiteSpace=wrap;html=1;" vertex="1" parent="1">
          <mxGeometry x="585" y="70" width="80" height="30" as="geometry" />
        </mxCell>
        <mxCell id="R-tR150lUjor8DAGONKd-12" value="Contact Us" style="rounded=0;whiteSpace=wrap;html=1;" vertex="1" parent="1">
          <mxGeometry x="665" y="70" width="80" height="30" as="geometry" />
        </mxCell>
        <mxCell id="R-tR150lUjor8DAGONKd-16" value="" style="endArrow=none;html=1;rounded=0;entryX=0;entryY=0;entryDx=0;entryDy=0;exitX=1;exitY=1;exitDx=0;exitDy=0;" edge="1" parent="1" source="R-tR150lUjor8DAGONKd-2" target="R-tR150lUjor8DAGONKd-2">
          <mxGeometry width="50" height="50" relative="1" as="geometry">
            <mxPoint x="390" y="320" as="sourcePoint" />
            <mxPoint x="440" y="270" as="targetPoint" />
            <Array as="points">
              <mxPoint x="800" y="360" />
            </Array>
          </mxGeometry>
        </mxCell>
        <mxCell id="R-tR150lUjor8DAGONKd-17" value="" style="endArrow=none;html=1;rounded=0;exitX=0;exitY=1;exitDx=0;exitDy=0;entryX=1;entryY=0;entryDx=0;entryDy=0;" edge="1" parent="1" source="R-tR150lUjor8DAGONKd-2" target="R-tR150lUjor8DAGONKd-2">
          <mxGeometry width="50" height="50" relative="1" as="geometry">
            <mxPoint x="390" y="320" as="sourcePoint" />
            <mxPoint x="440" y="270" as="targetPoint" />
          </mxGeometry>
        </mxCell>
        <mxCell id="R-tR150lUjor8DAGONKd-13" value="Contact Us" style="rounded=0;whiteSpace=wrap;html=1;fontSize=20;" vertex="1" parent="1">
          <mxGeometry x="60" y="250" width="210" height="90" as="geometry" />
        </mxCell>
        <mxCell id="R-tR150lUjor8DAGONKd-18" value="" style="rounded=0;whiteSpace=wrap;html=1;" vertex="1" parent="1">
          <mxGeometry x="140" y="430" width="130" height="110" as="geometry" />
        </mxCell>
        <mxCell id="R-tR150lUjor8DAGONKd-19" value="" style="rounded=0;whiteSpace=wrap;html=1;" vertex="1" parent="1">
          <mxGeometry x="355" y="430" width="130" height="110" as="geometry" />
        </mxCell>
        <mxCell id="R-tR150lUjor8DAGONKd-20" value="" style="rounded=0;whiteSpace=wrap;html=1;" vertex="1" parent="1">
          <mxGeometry x="570" y="430" width="130" height="110" as="geometry" />
        </mxCell>
      </root>
    </mxGraphModel>
  </diagram>
</mxfile>
